<?xml version="1.0" encoding="utf-8"?>
<!-- Generator: Adobe Illustrator 26.1.0, SVG Export Plug-In . SVG Version: 6.00 Build 0)  -->
<svg version="1.1" id="Layer_1" xmlns="http://www.w3.org/2000/svg" xmlns:xlink="http://www.w3.org/1999/xlink" x="0px" y="0px"
	 viewBox="0 0 100 100" style="enable-background:new 0 0 100 100;" xml:space="preserve">
<style type="text/css">
	.st0{display:none;}
	.st1{fill:#FFFFFF;}
	.st2{display:inline;}
</style>
<rect class="st0" width="100" height="100"/>
<g>
	<path class="st1" d="M85,100H15c-8.3,0-15-6.7-15-15V15C0,6.7,6.7,0,15,0h70c8.3,0,15,6.7,15,15v70C100,93.3,93.3,100,85,100z"/>
	<g>
		<path d="M31.4,77.8c0-5.8-0.4-11.6-0.5-17.4c0-1.6,0.2-3.1,0.4-4.7c0.1-0.6,0-1.2,0.7-1.3c0.6-0.1,1.2,0.1,1.6,0.7
			c0.2,0.5,0.4,1,0.5,1.3c1.6,4.1,3.6,8,5.7,11.7c0.2,0.4,0.5,1,1,0.8c0.5-0.1,0.4-0.8,0.5-1.2c1.9-7.6,5.3-14.3,9.9-20.1
			c1-1.2,1.9-2.3,3.3-2.8c0.7-0.4,1.2,0,1.2,1c0,0.1,0,0.2,0,0.2C54.6,53.7,56,61.4,56,68.9c0,3.4,0,6.8,0,10.2c0,0.7,0,1.2-0.8,1.5
			c-1.5,0.5-1.8,0.5-1.6-1.2c0.4-2.9,0-5.8-0.4-8.7c-0.5-5.4-0.1-10.8-0.7-16.2c-0.1-0.8,0.1-2.3-0.5-2.5c-1-0.2-1.2,1.2-1.7,1.9
			c-4.1,5.4-6.3,12.1-8.7,18.6c-0.1,0.2-0.1,0.6-0.2,0.8c-0.2,0.6-0.4,1.2-1,1.3c-0.7,0.1-0.8-0.6-1.1-1.1c-1.2-3.4-3.4-6-5.1-9.1
			c-0.2-0.4-0.4-0.7-0.7-0.6c-0.4,0.1-0.2,0.6-0.2,1c0.1,1.7,0.1,3.4,0.2,5.1c0.4,6,0,12,0.6,18c0.1,0.8,0.1,1.6-0.2,2.4
			S33,92,32.2,92c-1.1,0-1-1.3-1-2.1C31.4,85.8,31.4,81.8,31.4,77.8z"/>
		<path d="M70.2,49.4c0.1,4.1-2.2,6.8-4.5,9.3c-1.1,1.2-2.4,1.9-3.6,2.8c-1.6,1.1-1.6,1.1-1.2,3.3c0.1,0.6,0.2,1.2,0.5,1.7
			c1.2,2.9,2.5,3.5,5.2,2.7c1.5-0.5,2.7-1.5,3.7-2.7c1.5-1.7,2.9-3.4,4.4-5.1c0.4-0.4,0.7-0.8,1.2-1.2c0.7-0.5,1.8-1.5,2.5-0.4
			c0.6,0.8-0.2,2.2-0.7,2.7c-3.9,3.6-7.4,7.9-12.6,8.9c-0.6,0.1-1.1,0.4-1.7,0c-3.7-2.1-5.9-6.4-5.4-11.5c0.5-5,2.7-8.8,4.7-12.8
			c1-1.8,2.5-3,4.1-4c0.7-0.5,1.2-0.4,1.8,0.4C69.8,45.3,70.2,47.2,70.2,49.4z M68,49.8c0-0.5,0-0.7,0-1c-0.1-0.8-0.1-1.7-0.8-2.1
			c-0.7-0.2-1.1,0.5-1.6,1c-2.7,2.8-4,6.7-5.1,10.5c-0.1,0.4-0.1,0.8,0.1,1.1c0.1,0.1,0.5-0.1,0.7-0.2c2.5-1.9,4.5-4.6,6.3-7.4
			C68,51,68,50.1,68,49.8z"/>
		<path d="M85.9,9.4c0-1.1-0.4-2.1,0.7-2.2c1.1-0.1,1.2,0.8,1.5,1.7c1,5.2,1.9,10.5,2.7,15.8c0.7,5.9,1.7,11.9,2.2,17.8
			c0.2,2.9,1.1,5.7,2.1,8.3c0.5,1.2,0.1,2.1-0.2,3.1c-0.4,0.7-0.8,1.3-1.3,1.1c-0.7-0.2-1.8-0.2-2.1-1.5c-0.1-0.6-0.2-1.2-0.4-1.8
			c-0.6-4.6-1.3-9.1-1.7-13.7c-0.7-9.1-1.8-18-3-27C86,10.5,86,9.9,85.9,9.4z"/>
		<path d="M95.4,66.3c0,2.5-2.4,5.4-4.7,4.8c-1-0.2-1.6-0.7-1.7-1.8c-0.4-2.5,0.6-4.7,1.7-6.7c0.1-0.2,0.5-0.5,0.8-0.6
			C93.5,61.8,95.7,64.2,95.4,66.3z"/>
	</g>
	<g>
		<path d="M17.8,24.7c-0.7-3.5-0.2-7.1-0.7-10.8c-0.2-1.5,0-2.4,0.8-3.4c0.5-0.5,0-2.1,0.7-1.8c0.8,0.2,0.4,1.5,0.5,2.3
			c0.2,4.1,1,8.1,1.5,12.2c0.1,1.3,0.6,1.5,1.6,0.8c1.8-1.3,3.7-2.5,5.6-3.9c0.8-0.6,1.5-0.8,2.1,0.5c0.6,1.3-0.1,1.8-0.8,2.3
			c-2.2,1.5-4.2,3-6.4,4.5c-1.1,0.7-1.6,1.6-1.3,3.1c0.8,5.4,1.2,11.1,2.5,16.6c0.8,3.5,0.8,7.3,1.1,11c0.1,1.2-0.2,3.3-1.1,3.3
			c-1.2,0-0.7-1.8-1-2.9c-0.6-3.3-1.1-6.4-1.7-9.7c-0.8-5.4-1.7-10.8-2.5-16.2C18.3,31,18.2,31,17,31.9c-1.7,1.3-3.4,2.7-5.2,3.9
			c-0.6,0.4-0.8,0.8-0.7,1.7c0.5,6.9,0.7,13.8,1.3,20.7c0.1,1.9,0.6,3.7,1,5.6c0.1,0.6,0.4,1.7-0.5,1.6c-0.7,0-1.8,0.6-2.1-1.1
			c-0.4-2.4-0.7-4.7-1-7.1c-0.6-5.6-1.5-11.1-1.6-16.7c0-1.5-0.2-1.5-1.3-0.7c-1.1,0.7-2.3,1.5-3.4,2.1c-0.4,0.2-0.8,0.5-1.2-0.1
			c-0.2-0.5-0.2-1,0.1-1.3c0.7-1,1.5-2.1,2.4-2.8c0.7-0.6,1.3-1.2,2.1-1.8c0.8-0.6,1-1.5,0.8-2.5C7.4,29.3,7,25.6,6.4,21.8
			c-0.4-2.3-0.2-4.6-0.5-6.9c-0.2-1.6,1-2.1,1.3-3c0.4-0.8,0.8-0.5,1,0.2c0.2,1.6,0.6,3.1,0.6,4.7c0,2.2,0.4,4.4,0.8,6.5
			c0.5,2.3,0.8,4.7,0.8,7.1c0,1.5,0.2,1.6,1.3,0.7c1.6-1.1,2.9-2.4,4.5-3.5C17.6,27.2,18,26.2,17.8,24.7z"/>
		<path d="M55.8,21.6c0.6-6.8,2.5-13.3,8.6-17.2c1.9-1.2,2.5-1.2,4,0.7C69,6,69.7,6.7,70.3,7.6c1.2,2.1,1.2,3.5-0.1,5.4
			c-1.7,2.5-4.1,3.9-6.5,5.1c-1.5,0.7-2.7,1.8-3.9,2.9c-0.6,0.5-0.7,1-0.4,1.8c0.4,0.7,0.6,1.5,1,2.2c0.6,1.1,1.3,1.6,2.7,1.1
			c3.4-1.2,6.5-3.1,9.7-4.8c2.8-1.6,5.2-3.9,8.1-5.1c0.4-0.1,0.8-0.5,1.2-0.5c0.8-0.1,1.2,0.8,1,1.8c-0.2,1-0.7,1.7-1.6,2.1
			c-4.4,2.2-8.6,4.4-12.7,7.3c-2.1,1.5-4.4,1.9-6.7,2.4C58.1,29.8,56,27.4,55.8,21.6z M66.4,7.7c-0.7,0-1.7,0.4-2.4,1.1
			c-2.5,2.3-4,5.4-4.7,8.9c-0.1,0.2-0.2,0.6,0,0.8c0.1,0.1,0.5,0,0.6-0.2c2.3-2.4,5-4.1,7.5-6.2c0.4-0.2,0.7-0.6,1-0.8
			c1-1.1,1-1.9-0.2-2.9C67.8,7.9,67.3,7.7,66.4,7.7z"/>
		<path d="M45.3,20.4c0.5-1.8,0.6-2.9,1.1-4c1.2-3.6,4.8-5.7,7.7-4.5c0.5,0.2,1.1,0.4,1.1,1.1c0.1,0.7-0.6,1-1,1.3
			c-0.2,0.2-0.6,0.5-1,0.5c-2.5,0.2-3.6,2.3-4.5,4.7c-1.9,5.2-2.1,10.4-0.8,15.8c0.4,1.6,0.5,3.1,0.7,4.7c0.1,0.8,0.2,1.7-0.4,2.3
			c-0.4,0.5-0.5,1.5-1.2,1.3c-0.6-0.1-0.5-1-0.6-1.5c-1.3-7.7-2.7-15.5-4-23.2c-0.1-0.7-0.1-1.6-0.1-2.4c-0.1-0.6-0.1-1.5,0.5-1.3
			c0.6,0,1.7-0.4,1.9,1C44.8,17.4,45,18.6,45.3,20.4z"/>
		<path d="M39.9,45.6c0,1.7,0.1,2.5-1,3.4c-1.2,1-1.8,1.1-2.2-0.4c-0.2-1-0.4-1.9-0.5-2.9c-1-7.9-1.9-15.8-2.9-23.7
			c-0.1-0.6-0.1-1.2-0.1-1.8c-0.1-1.1,0.1-2.1,1.2-2.2c1.2-0.1,1.9,0.5,2.1,1.9c0.4,5.2,1,10.4,1.9,15.4
			C39.2,38.9,39.5,42.5,39.9,45.6z"/>
		<path d="M35.1,11.3c-0.2,1.5-0.1,3-0.8,4.2c-0.6,1-1.3,1-1.8,0c-1.2-2.8-1.7-5.7-0.6-8.6c0.2-0.6,0.6-1.2,1.3-1.2
			c0.6,0,0.8,0.6,1.1,1.1C35,8.3,34.9,9.8,35.1,11.3z"/>
	</g>
	<g class="st0">
		<path class="st2" d="M63.2,96.9c-0.9,0-1.9-0.1-2.8-0.3c-1.4-0.3-2.6-1-3.6-1.9c-1.2-1.1-1.7-2.5-1.6-4.3c0-0.1,0-0.1,0-0.2
			c-0.3,0.1-0.5,0.2-0.7,0.2c-0.3,0-0.9,0-1.2-0.7c-0.3-0.6,0-1.1,0.2-1.5c0.8-1.1,1.5-1.7,2.2-2.2c0.4-0.2,0.7-0.6,1-1.1
			c1.6-2.8,3.8-5,6.9-6.7c4.4-2.7,9.4-4.2,14.7-4.7c0,0,0,0,0,0c0.2,0,0.4,0,0.6,0.1c0.2,0,0.5,0.1,0.7,0.1c0.8,0.1,1.5,0.2,2.2,0.3
			c1,0.1,2,0.3,3,0.3c0.1,0,0.5,0,0.5,0c1.9,0,3.5,1.2,4.5,2.1c0.3,0.2,0.4,0.3,0.5,0.3c0.1,0,0.1,0,0.2-0.1C91.2,76,92,76,92.6,76
			c1,0,1.2,0.6,1.3,0.9c0.1,0.4,0.1,1-0.6,1.5c-0.3,0.2-0.7,0.4-1,0.6c-0.1,0.1-0.3,0.2-0.4,0.2c-0.2,0.1-0.2,0.1-0.2,0.3
			c0.6,2.9-0.3,5.5-2.5,7.6c-1.6,1.5-3.4,2.6-5.1,3.5c-5.7,3-11.9,5.1-18.4,6.1C64.8,96.8,64,96.9,63.2,96.9z M79.4,75.1
			c-0.3,0.1-0.6,0.1-0.8,0.1c-2.1,0.1-4.3,0.4-6.9,1.2c-4.3,1.3-7.4,2.9-10.1,5.2c-2.6,2.3-4.1,4.6-4.7,7.5
			c-0.2,1.2-0.3,2.6,0.5,3.7c0.8,0.9,1.6,1.6,2.6,2c0.9,0.4,2,0.5,3.1,0.5c1.2,0,2.4-0.2,3.4-0.4c5.5-1,9.9-2.3,13.7-4.1l0.5-0.2
			c2.5-1.2,4.9-2.3,7-4.1c0.7-0.6,1.4-1.5,2.1-2.6c1.2-2.1,0.5-5.4-1.4-6.7c-0.7-0.5-1.4-0.9-2.2-1.1c-0.7-0.2-1.4-0.3-2.1-0.3
			c-1.2,0-2.5,0.3-3.8,0.8c-0.1,0.1-0.3,0.1-0.5,0.2c-0.2,0.1-0.4,0.2-0.6,0.2l-0.1,0H79c-0.1,0-0.4,0-0.6-0.2
			c-0.2-0.2-0.2-0.4-0.2-0.6c0-0.2,0.2-0.5,0.4-0.6c0.1-0.1,0.2-0.1,0.3-0.2c0.1-0.1,0.2-0.1,0.3-0.2C79.3,75.2,79.4,75.1,79.4,75.1
			C79.4,75.1,79.4,75.1,79.4,75.1z"/>
		<path class="st2" d="M79.5,74.1c1.9,0.1,3.8,0.6,5.6,0.5c1.6-0.1,3,0.8,4.3,1.9c0.5,0.4,0.8,0.5,1.2,0.3c0.6-0.3,1.2-0.3,1.9-0.3
			c0.3,0,0.7,0.1,0.8,0.5c0.1,0.5-0.2,0.9-0.5,1.1c-0.5,0.3-0.9,0.5-1.4,0.8c-0.3,0.2-0.5,0.4-0.4,0.9c0.6,3-0.5,5.3-2.3,7.1
			c-1.5,1.5-3.2,2.5-5,3.4c-5.8,3.1-12,5.1-18.3,6c-1.7,0.3-3.4,0.3-5.1-0.1c-1.2-0.3-2.4-0.9-3.4-1.8c-1-1-1.6-2.3-1.5-3.9
			c0-0.6-0.1-1-0.7-0.7c-0.2,0.1-0.4,0.1-0.5,0.1c-0.3,0-0.6,0-0.7-0.3c-0.2-0.4,0-0.7,0.2-1.1c0.6-0.8,1.2-1.5,2-2
			c0.5-0.3,0.8-0.7,1.2-1.3c1.7-2.9,4-5,6.7-6.5c4.5-2.7,9.4-4.2,14.4-4.6C78.5,74,79,74.1,79.5,74.1z M78.5,74.6
			c-2.4,0.1-4.7,0.5-7.1,1.2c-3.7,1.1-7.2,2.7-10.3,5.3c-2.3,2-4.1,4.3-4.9,7.8c-0.3,1.5-0.3,2.9,0.6,4.1c0.8,0.9,1.7,1.7,2.8,2.1
			c2.3,0.9,4.6,0.6,6.8,0.2c4.7-0.9,9.4-2.1,13.9-4.1c2.7-1.3,5.3-2.5,7.6-4.5c0.8-0.7,1.6-1.7,2.2-2.7c1.3-2.3,0.6-5.9-1.6-7.3
			c-0.8-0.5-1.6-1-2.4-1.2C84.1,75,82,75.2,80,76c-0.3,0.1-0.7,0.3-1,0.5c-0.1,0-0.2,0-0.3-0.1c-0.1-0.1,0-0.3,0.1-0.4
			c0.3-0.2,0.5-0.3,0.7-0.5c0.4-0.3,0.8-0.2,1.1-0.7c-0.4-0.3-0.9-0.3-1.4-0.3C79,74.6,78.8,74.6,78.5,74.6z M91,78.4
			c0.5-0.3,0.9-0.5,1.4-0.7c0.1-0.1,0.1-0.2,0.1-0.3c0-0.2-0.2-0.2-0.3-0.2c-0.5,0-0.9,0.2-1.3,0.3c-0.2,0.1-0.3,0.3-0.2,0.5
			C90.7,78.2,90.8,78.2,91,78.4z M55.9,87.9c0-0.3-0.1-0.4-0.3-0.3c-0.5,0.3-0.8,0.7-1.1,1.2c-0.1,0.1,0,0.3,0.1,0.3
			C55.1,89.2,55.9,88.4,55.9,87.9z"/>
		<path class="st2" d="M70.5,93c-2.2-0.2-3.9-1-5.2-2.7c-1.2-1.4-1.9-3.2-2.4-4.6c-0.2-0.8,0.2-1.2,0.4-1.3l0,0l0.1,0l0.2,0
			c0.4,0,0.6,0.3,0.7,0.5l0,0l0.1,0.1c0.1,0.2,0.2,0.5,0.3,0.7c0.2,0.6,0.4,1.1,0.7,1.6c1.2,2.5,3,3.9,5.1,3.9
			c0.8,0,1.5-0.2,2.3-0.5c3.3-1.5,5.5-3.7,6.9-6.7c0.3-0.5,0.4-1,0.5-1.6c0.2-0.7,0.6-0.7,0.8-0.7h0.1l0.2,0
			c0.5,0.2,0.6,0.7,0.5,1.2c0,0.5-0.2,1.1-0.6,1.6c-1.1,2.2-2.2,3.7-3.5,4.9c-1.7,1.4-3.7,3-6.2,3.4c-0.4,0.1-0.6,0.1-0.9,0.2
			L70.5,93L70.5,93z"/>
		<path class="st2" d="M70.5,92.5c-1.9-0.1-3.6-0.9-4.8-2.5c-1-1.3-1.7-2.9-2.3-4.5c-0.1-0.3-0.1-0.5,0.2-0.7
			c0.3-0.1,0.3,0.1,0.5,0.3c0.3,0.8,0.6,1.6,1,2.3c1.9,3.9,5.1,4.9,8,3.5c3-1.4,5.5-3.5,7.1-6.9c0.3-0.5,0.5-1.1,0.6-1.7
			c0.1-0.3,0.2-0.4,0.4-0.3c0.2,0.1,0.3,0.3,0.2,0.5c-0.1,0.5-0.3,1.1-0.5,1.5c-0.9,1.9-1.9,3.5-3.4,4.7c-1.8,1.5-3.7,2.9-6,3.3
			C71.1,92.4,70.8,92.4,70.5,92.5z"/>
		<path class="st2" d="M75.2,82.4c-0.6,0-1.3-0.5-1.3-1.6c0-1,0.4-2,1.3-2c0.7,0,1.4,0.8,1.4,1.7C76.6,81.3,76.1,82.3,75.2,82.4
			L75.2,82.4L75.2,82.4z"/>
		<path class="st2" d="M74.4,80.8c0-0.8,0.3-1.5,0.8-1.5s0.9,0.6,0.9,1.2c0,0.7-0.4,1.4-0.9,1.5C74.7,81.9,74.4,81.5,74.4,80.8z"/>
		<path class="st2" d="M69.9,84c-0.7-0.2-1.1-0.9-1-1.6c0.1-0.9,0.6-1.4,1.2-1.4l0.2,0c0.8,0.1,1.2,0.6,1.2,1.4
			c0,0.7-0.7,1.6-1.5,1.6L69.9,84z"/>
		<path class="st2" d="M70,83.5c-0.4-0.1-0.6-0.5-0.6-1.1c0.1-0.7,0.4-1.1,0.8-1c0.5,0.1,0.8,0.3,0.8,0.9C71,82.9,70.4,83.6,70,83.5
			z"/>
	</g>
	<g>
		<path d="M93.9,76.9c0-0.3-0.3-0.9-1.3-0.9c-0.5,0-1.3,0-2.1,0.4c-0.1,0-0.2,0.1-0.2,0.1c-0.1,0-0.2,0-0.5-0.3
			c-1-0.9-2.6-2.1-4.5-2.1c0,0-0.4,0-0.5,0c-1,0-2-0.1-3-0.3c-0.7-0.1-1.5-0.2-2.2-0.3c-0.2,0-0.5,0-0.7-0.1c-0.2,0-0.4-0.1-0.6-0.1
			c0,0,0,0,0,0c-5.3,0.4-10.2,2-14.7,4.7c-3,1.7-5.3,3.9-6.9,6.7c-0.3,0.5-0.6,0.9-1,1.1c-0.7,0.4-1.4,1.1-2.2,2.2
			c-0.2,0.4-0.5,0.9-0.2,1.5c0.3,0.7,0.9,0.7,1.2,0.7c0.2,0,0.4-0.1,0.7-0.2c0,0.1,0,0.1,0,0.2c-0.1,1.8,0.5,3.2,1.6,4.3
			c1,1,2.3,1.6,3.6,1.9c0.9,0.2,1.8,0.3,2.8,0.3c0.8,0,1.6-0.1,2.5-0.2c6.6-1,12.8-3,18.4-6.1c1.7-0.9,3.5-2,5.1-3.5
			c2.2-2.1,3-4.6,2.5-7.6c0-0.2,0-0.2,0.2-0.3c0.1-0.1,0.3-0.2,0.4-0.2c0.3-0.2,0.6-0.3,1-0.6C93.9,77.9,93.9,77.3,93.9,76.9z
			 M79.2,75.2c-0.1,0.1-0.1,0.1-0.3,0.2c-0.1,0.1-0.3,0.1-0.3,0.2c-0.2,0.1-0.4,0.4-0.4,0.6c0,0.2,0,0.4,0.2,0.6
			C78.6,77,78.9,77,79,77h0.1l0.1,0c0.2-0.1,0.4-0.2,0.6-0.2c0.2-0.1,0.3-0.2,0.5-0.2c1.3-0.5,2.6-0.8,3.8-0.8
			c0.7,0,1.4,0.1,2.1,0.3c0.8,0.2,1.5,0.7,2.2,1.1c1.9,1.2,2.6,4.6,1.4,6.7c-0.7,1.1-1.4,2-2.1,2.6c-2.1,1.8-4.5,3-7,4.1l-0.5,0.2
			c-3.9,1.8-8.2,3.1-13.7,4.1c-1,0.2-2.2,0.4-3.4,0.4c-1.2,0-2.2-0.2-3.1-0.5c-1-0.4-1.8-1.1-2.6-2c-0.8-1-0.7-2.4-0.5-3.7
			c0.6-2.9,2.1-5.3,4.7-7.5c2.7-2.3,5.8-3.9,10.1-5.2c2.6-0.7,4.8-1.1,6.9-1.2c0.3,0,0.5,0,0.8-0.1c0,0,0,0,0.1,0
			C79.4,75.1,79.3,75.2,79.2,75.2z"/>
		<path d="M72.8,90.6c-0.8,0.4-1.5,0.5-2.3,0.5c-2.1,0-3.9-1.4-5.1-3.9c-0.3-0.5-0.5-1-0.7-1.6c-0.1-0.2-0.2-0.5-0.3-0.7l-0.1-0.1
			l0,0c-0.1-0.2-0.3-0.5-0.7-0.5l-0.2,0l-0.1,0l0,0c-0.2,0.1-0.6,0.5-0.4,1.3c0.5,1.4,1.2,3.2,2.4,4.6c1.3,1.6,2.9,2.5,5.2,2.7
			l0.1,0l0.1,0c0.2-0.1,0.5-0.1,0.9-0.2c2.5-0.4,4.5-2,6.2-3.4c1.4-1.2,2.5-2.7,3.5-4.9c0.3-0.6,0.5-1.1,0.6-1.6
			c0.1-0.4,0-1-0.5-1.2l-0.2,0H81c-0.1,0-0.6,0.1-0.8,0.7c-0.1,0.5-0.3,1-0.5,1.6C78.3,87,76.1,89.1,72.8,90.6z"/>
		<path d="M75.2,82.4L75.2,82.4L75.2,82.4c0.9-0.1,1.4-1.1,1.4-2c0-0.9-0.7-1.7-1.4-1.7c-0.8,0-1.3,1-1.3,2
			C73.9,81.9,74.5,82.4,75.2,82.4z"/>
		<path d="M69.9,84l0.1,0c0.8,0,1.5-0.9,1.5-1.6c0-0.8-0.4-1.3-1.2-1.4l-0.2,0c-0.7,0-1.2,0.6-1.2,1.4C68.8,83.1,69.2,83.8,69.9,84z
			"/>
	</g>
</g>
</svg>
